<?xml version="1.0" encoding="UTF-8" standalone="no"?>
<!DOCTYPE svg PUBLIC "-//W3C//DTD SVG 1.1//EN" "http://www.w3.org/Graphics/SVG/1.1/DTD/svg11.dtd">
<svg width="100%" height="100%" viewBox="0 0 32 32" version="1.1" xmlns="http://www.w3.org/2000/svg" xmlns:xlink="http://www.w3.org/1999/xlink" xml:space="preserve" xmlns:serif="http://www.serif.com/" style="fill-rule:evenodd;clip-rule:evenodd;stroke-linejoin:round;stroke-miterlimit:2;">
    <g id="add_1_" transform="matrix(1,0,0,1,-2,-2)">
        <g id="icons">
            <path id="add_1_1" serif:id="add_1_" d="M19.6,2L16.4,2C15.5,2 14.8,2.7 14.8,3.6L14.8,14.8L3.6,14.8C2.7,14.8 2,15.5 2,16.4L2,19.6C2,20.5 2.7,21.2 3.6,21.2L14.8,21.2L14.8,32.4C14.8,33.3 15.5,34 16.4,34L19.6,34C20.5,34 21.2,33.3 21.2,32.4L21.2,21.2L32.4,21.2C33.3,21.2 34,20.5 34,19.6L34,16.4C34,15.5 33.3,14.8 32.4,14.8L21.2,14.8L21.2,3.6C21.2,2.7 20.5,2 19.6,2Z" style="fill-rule:nonzero;"/>
        </g>
    </g>
</svg>
