<?xml version="1.0" encoding="UTF-8" standalone="no"?>
<!DOCTYPE svg PUBLIC "-//W3C//DTD SVG 1.1//EN" "http://www.w3.org/Graphics/SVG/1.1/DTD/svg11.dtd">
<svg width="100%" height="100%" viewBox="0 0 32 32" version="1.1" xmlns="http://www.w3.org/2000/svg" xmlns:xlink="http://www.w3.org/1999/xlink" xml:space="preserve" xmlns:serif="http://www.serif.com/" style="fill-rule:evenodd;clip-rule:evenodd;stroke-linejoin:round;stroke-miterlimit:2;">
    <g transform="matrix(1,0,0,-1,0,32.045)">
        <path d="M5.921,26.246L5.943,14.542L0.954,14.542L0.928,13.824L15.991,0.066L30.948,13.719L30.954,14.542L25.96,14.542L25.921,26.292C25.919,27.061 25.483,27.72 24.752,28.063L16.849,31.765C16.236,32.052 15.579,32.051 14.967,31.761L7.081,28.022C6.352,27.676 5.919,27.015 5.921,26.246Z" style="fill:white;fill-opacity:0.6;"/>
    </g>
    <g transform="matrix(1,0,0,-1,0,32.045)">
        <path d="M28.954,13.523L24.962,13.523L24.962,16.21L16.894,12.198C16.283,11.908 15.625,11.906 15.013,12.193L6.946,16.165L6.946,13.523L2.954,13.523L15.954,1.523L28.954,13.523Z" style="fill:url(#_Linear1);"/>
    </g>
    <g transform="matrix(1.12241,0,0,1.12241,-1.97596,-15.5768)">
        <g transform="matrix(1,0,0,1,-0.0462132,0.768919)">
            <path d="M8.558,17.977L8.512,25.905L16.025,29.447L23.528,26.042L23.532,17.987L19.056,19.896L12.444,15.638L8.558,17.977Z" style="fill:url(#_Linear2);"/>
        </g>
        <g transform="matrix(1,0,0,0.94039,2.34826,0.31663)">
            <path d="M9.463,17.669L17.288,21.345C17.288,21.345 14.997,22.819 13.761,23.34C13.334,23.519 13.613,24.752 13.46,24.673L6.219,21.005C6.02,20.895 6.048,19.634 6.721,19.129C7.692,18.4 9.463,17.669 9.463,17.669Z" style="fill:url(#_Linear3);"/>
        </g>
        <g transform="matrix(1,0,0,0.94039,2.34826,0.31663)">
            <path d="M8.884,17.949L16.403,21.849L20.209,19.836L20.384,18.587L14.485,15.619L13.327,15.696L8.884,17.949Z" style="fill:url(#_Linear4);"/>
        </g>
        <g transform="matrix(0.0263157,6.07693e-05,-5.72788e-05,0.0248042,6.3075,6.33485)">
            <path d="M99.4,466.1L339.4,346.1C358,336.8 378,336.8 396.6,346.1L453.392,375.248C442.596,369.582 433.609,376.308 405.204,389.096L368.826,369.972L112.776,493.381L156.781,515.137C142.188,516.272 137.008,531.639 137.011,542.201L102.832,523.316L102.828,810.668L350.58,935.208L350.476,655.439L306.358,629.608C306.856,611.332 307.582,604.94 323.709,597.656L368.534,621.039L613.593,488.413L574.488,468.932C597.11,455.694 609.054,452.807 621.091,458.627L636.6,466.1C658.8,477.2 672,498.5 672,523.3L672,800C672,824.8 658.8,846.1 636.6,857.2L396.6,977.2C378,986.5 358,986.5 339.4,977.2L99.4,857.2C77.2,846.1 64,824.8 64,800L64,523.3C64,498.5 77.2,477.2 99.4,466.1ZM634.104,520.168L382.872,658.131L385.83,935.055L634.835,810.59L634.104,520.168Z" style="fill-rule:nonzero;"/>
        </g>
        <g transform="matrix(0.0263157,6.07693e-05,-5.72788e-05,0.0248042,6.15029,6.27474)">
            <path d="M189.3,537.9C475.928,388.945 474.934,385.207 491.062,393.791L587.921,441.764C573.472,434.476 576.369,435.527 285.3,585.9C276.9,590 272,598 272,607.3L272,688.5L241.981,647.624L219.03,662.015L194.595,628.805L176,640.5L176,559.3C176,550 180.9,542 189.3,537.9Z" style="fill-opacity:0.53;fill-rule:nonzero;"/>
        </g>
    </g>
    <defs>
        <linearGradient id="_Linear1" x1="0" y1="0" x2="1" y2="0" gradientUnits="userSpaceOnUse" gradientTransform="matrix(-0.0715544,15.0243,-15.0243,-0.0715544,16.0029,1.4244)"><stop offset="0" style="stop-color:rgb(207,208,215);stop-opacity:1"/><stop offset="0.45" style="stop-color:rgb(176,174,191);stop-opacity:1"/><stop offset="1" style="stop-color:rgb(100,89,132);stop-opacity:1"/></linearGradient>
        <linearGradient id="_Linear2" x1="0" y1="0" x2="1" y2="0" gradientUnits="userSpaceOnUse" gradientTransform="matrix(1.54818,-0.0161353,0.0161353,1.54818,15,23.5)"><stop offset="0" style="stop-color:rgb(1,115,212);stop-opacity:1"/><stop offset="1" style="stop-color:rgb(2,79,157);stop-opacity:1"/></linearGradient>
        <linearGradient id="_Linear3" x1="0" y1="0" x2="1" y2="0" gradientUnits="userSpaceOnUse" gradientTransform="matrix(-0.556462,1.09078,-1.02576,-0.591736,10.8484,21.4758)"><stop offset="0" style="stop-color:rgb(79,166,237);stop-opacity:1"/><stop offset="1" style="stop-color:rgb(79,166,237);stop-opacity:0"/></linearGradient>
        <linearGradient id="_Linear4" x1="0" y1="0" x2="1" y2="0" gradientUnits="userSpaceOnUse" gradientTransform="matrix(0.374259,-0.97565,0.917492,0.397982,18.2486,18.5369)"><stop offset="0" style="stop-color:rgb(79,166,237);stop-opacity:1"/><stop offset="1" style="stop-color:rgb(171,217,255);stop-opacity:1"/></linearGradient>
    </defs>
</svg>
