<?xml version="1.0" encoding="UTF-8" standalone="no"?>
<!DOCTYPE svg PUBLIC "-//W3C//DTD SVG 1.1//EN" "http://www.w3.org/Graphics/SVG/1.1/DTD/svg11.dtd">
<svg width="100%" height="100%" viewBox="0 0 32 32" version="1.1" xmlns="http://www.w3.org/2000/svg" xmlns:xlink="http://www.w3.org/1999/xlink" xml:space="preserve" xmlns:serif="http://www.serif.com/" style="fill-rule:evenodd;clip-rule:evenodd;stroke-linejoin:round;stroke-miterlimit:2;">
    <g transform="matrix(1,0,0,1,0,2)">
        <path d="M10.321,12.753L17.833,9.02C18.59,8.683 20.117,11.964 19.36,12.3L11.396,14.833C11.215,14.026 10.791,13.401 10.321,12.753ZM11.201,18.038L17.905,22.665C18.615,23.091 17.86,24.194 17.15,23.768L10.308,19.907C10.736,19.431 10.941,18.632 11.201,18.038Z"/>
    </g>
    <g transform="matrix(1.23077,0,0,1.23077,-6.15385,-0.461538)">
        <path d="M24.5,2C28.087,2 31,4.913 31,8.5C31,12.087 28.087,15 24.5,15C20.913,15 18,12.087 18,8.5C18,4.913 20.913,2 24.5,2ZM24.5,4.438C22.258,4.438 20.438,6.258 20.438,8.5C20.438,10.742 22.258,12.563 24.5,12.563C26.742,12.563 28.562,10.742 28.562,8.5C28.562,6.258 26.742,4.438 24.5,4.438Z"/>
    </g>
    <g transform="matrix(0.769231,0,0,0.769231,2.15385,20.4615)">
        <path d="M24.5,2C28.087,2 31,4.913 31,8.5C31,12.087 28.087,15 24.5,15C20.913,15 18,12.087 18,8.5C18,4.913 20.913,2 24.5,2ZM24.5,4.6C22.348,4.6 20.6,6.348 20.6,8.5C20.6,10.652 22.348,12.4 24.5,12.4C26.652,12.4 28.4,10.652 28.4,8.5C28.4,6.348 26.652,4.6 24.5,4.6Z"/>
    </g>
    <g transform="matrix(0.923077,0,0,0.923077,-16.6154,10.1538)">
        <path d="M24.5,2C28.087,2 31,4.913 31,8.5C31,12.087 28.087,15 24.5,15C20.913,15 18,12.087 18,8.5C18,4.913 20.913,2 24.5,2ZM24.5,4.708C22.407,4.708 20.708,6.407 20.708,8.5C20.708,10.593 22.407,12.292 24.5,12.292C26.593,12.292 28.292,10.593 28.292,8.5C28.292,6.407 26.593,4.708 24.5,4.708Z"/>
    </g>
</svg>
