<?xml version="1.0" encoding="UTF-8" standalone="no"?>
<!DOCTYPE svg PUBLIC "-//W3C//DTD SVG 1.1//EN" "http://www.w3.org/Graphics/SVG/1.1/DTD/svg11.dtd">
<svg width="100%" height="100%" viewBox="0 0 32 32" version="1.1" xmlns="http://www.w3.org/2000/svg" xmlns:xlink="http://www.w3.org/1999/xlink" xml:space="preserve" xmlns:serif="http://www.serif.com/" style="fill-rule:evenodd;clip-rule:evenodd;stroke-linejoin:round;stroke-miterlimit:2;">
    <g id="icons" transform="matrix(0.92869,0,0,0.92869,-0.760715,-0.762852)">
        <path id="close_1_" d="M6.2,3.5L3.5,6.2C2.8,6.9 2.8,8.1 3.5,8.9L12.7,18.1L3.5,27.3C2.8,28 2.8,29.2 3.5,30L6.1,32.6C6.8,33.3 8,33.3 8.8,32.6L18,23.4L27.2,32.6C27.9,33.3 29.1,33.3 29.9,32.6L32.5,30C33.2,29.3 33.2,28.1 32.5,27.3L23.3,18L32.5,8.8C33.2,8.1 33.2,6.9 32.5,6.1L29.9,3.5C29.2,2.8 28,2.8 27.2,3.5L18,12.7L8.8,3.5C8.1,2.8 6.9,2.8 6.2,3.5Z" style="fill-rule:nonzero;"/>
    </g>
</svg>
