<?xml version="1.0" encoding="UTF-8" standalone="no"?>
<!DOCTYPE svg PUBLIC "-//W3C//DTD SVG 1.1//EN" "http://www.w3.org/Graphics/SVG/1.1/DTD/svg11.dtd">
<svg width="100%" height="100%" viewBox="0 0 16 16" version="1.1" xmlns="http://www.w3.org/2000/svg" xmlns:xlink="http://www.w3.org/1999/xlink" xml:space="preserve" xmlns:serif="http://www.serif.com/" style="fill-rule:evenodd;clip-rule:evenodd;stroke-linejoin:round;stroke-miterlimit:2;">
    <g transform="matrix(0.971563,0,0,0.971563,-8.3175,1)">
        <path d="M22,3.414L15.414,10C15.024,10.39 14.39,10.39 14,10C13.61,9.61 13.61,8.976 14,8.586L20.586,2L17.824,2.059C17.272,2.059 17,1.552 17,1C17,0.448 17.272,0.059 17.824,0.059L24,0L24,6.176C24,6.728 23.552,7 23,7C22.448,7 22,6.728 22,6.176L22,3.414Z"/>
    </g>
    <g transform="matrix(1,0,0,1,-1,1)">
        <path d="M14,9L14,11C14,12.656 12.656,14 11,14L5,14C3.344,14 2,12.656 2,11L2,5C2,3.344 3.344,2 5,2L7,2C7.552,2 8,2.448 8,3C8,3.552 7.552,4 7,4L5,4C4.448,4 4,4.448 4,5L4,11C4,11.552 4.448,12 5,12L11,12C11.552,12 12,11.552 12,11L12,9C12,8.448 12.448,8 13,8C13.552,8 14,8.448 14,9Z"/>
    </g>
</svg>
