<?xml version="1.0" encoding="UTF-8" standalone="no"?>
<!DOCTYPE svg PUBLIC "-//W3C//DTD SVG 1.1//EN" "http://www.w3.org/Graphics/SVG/1.1/DTD/svg11.dtd">
<svg width="100%" height="100%" viewBox="0 0 16 16" version="1.1" xmlns="http://www.w3.org/2000/svg" xmlns:xlink="http://www.w3.org/1999/xlink" xml:space="preserve" xmlns:serif="http://www.serif.com/" style="fill-rule:evenodd;clip-rule:evenodd;stroke-linejoin:round;stroke-miterlimit:2;">
    <g transform="matrix(1,0,0,1,2,0)">
        <g transform="matrix(1,0,0,1,-2,-8.88178e-16)">
            <path d="M8,16L2,16L2,0L8,0L8,1L3,1L3,15L8,15L8,16Z" style="fill:url(#_Radial1);"/>
        </g>
        <g transform="matrix(1,0,0,1,-2,-8.88178e-16)">
            <path d="M8,0L8.402,0L14,5.546L14,16L2,16L2,15.82L8,15.82L8,15L13,15L13,6L8,1L8,0Z" style="fill:url(#_Radial2);"/>
        </g>
        <path d="M11,6L6,6L6,1L11,6Z" style="fill:url(#_Linear3);"/>
    </g>
    <g transform="matrix(1.57497,0,0,1.48114,-16.3597,-2.28734)">
        <path d="M14.495,6C14.844,5.999 14.789,7.319 15.292,7.854C15.795,8.388 17.039,8.356 17.035,8.701C17.031,9.091 15.795,9.013 15.292,9.548C14.789,10.083 14.838,11.409 14.495,11.401C14.162,11.394 14.202,10.083 13.699,9.548C13.196,9.013 11.948,9.042 11.956,8.701C11.964,8.341 13.196,8.388 13.699,7.854C14.202,7.319 14.179,6.001 14.495,6Z" style="fill:rgb(0,104,185);"/>
    </g>
    <g transform="matrix(0.984346,0,0,0.925704,-2.76837,0.570739)">
        <path d="M14.495,6C14.844,5.999 14.789,7.319 15.292,7.854C15.795,8.388 17.039,8.356 17.035,8.701C17.031,9.091 15.795,9.013 15.292,9.548C14.789,10.083 14.838,11.409 14.495,11.401C14.162,11.394 14.202,10.083 13.699,9.548C13.196,9.013 11.948,9.042 11.956,8.701C11.964,8.341 13.196,8.388 13.699,7.854C14.202,7.319 14.179,6.001 14.495,6Z" style="fill:rgb(0,104,185);"/>
    </g>
    <g transform="matrix(0.61521,0,0,0.57856,-3.35517,-0.471358)">
        <path d="M14.495,6C14.844,5.999 14.789,7.319 15.292,7.854C15.795,8.388 17.039,8.356 17.035,8.701C17.031,9.091 15.795,9.013 15.292,9.548C14.789,10.083 14.838,11.409 14.495,11.401C14.162,11.394 14.202,10.083 13.699,9.548C13.196,9.013 11.948,9.042 11.956,8.701C11.964,8.341 13.196,8.388 13.699,7.854C14.202,7.319 14.179,6.001 14.495,6Z" style="fill:rgb(0,104,185);"/>
    </g>
    <defs>
        <radialGradient id="_Radial1" cx="0" cy="0" r="1" gradientUnits="userSpaceOnUse" gradientTransform="matrix(-0.0161042,3.66475,-3.66475,-0.0161042,2.4846,10.5951)"><stop offset="0" style="stop-color:black;stop-opacity:0.07"/><stop offset="0.5" style="stop-color:black;stop-opacity:0.3"/><stop offset="1" style="stop-color:black;stop-opacity:1"/></radialGradient>
        <radialGradient id="_Radial2" cx="0" cy="0" r="1" gradientUnits="userSpaceOnUse" gradientTransform="matrix(0.208506,-3.36794,3.36794,0.208506,13.4494,8.6703)"><stop offset="0" style="stop-color:black;stop-opacity:0"/><stop offset="0.46" style="stop-color:black;stop-opacity:0.29"/><stop offset="1" style="stop-color:black;stop-opacity:1"/></radialGradient>
        <linearGradient id="_Linear3" x1="0" y1="0" x2="1" y2="0" gradientUnits="userSpaceOnUse" gradientTransform="matrix(2.21325,-2.59107,2.59107,2.21325,6.15423,5.83973)"><stop offset="0" style="stop-color:black;stop-opacity:0.36"/><stop offset="1" style="stop-color:black;stop-opacity:1"/></linearGradient>
    </defs>
</svg>
