<?xml version="1.0" encoding="UTF-8" standalone="no"?>
<!DOCTYPE svg PUBLIC "-//W3C//DTD SVG 1.1//EN" "http://www.w3.org/Graphics/SVG/1.1/DTD/svg11.dtd">
<svg width="100%" height="100%" viewBox="0 0 64 64" version="1.1" xmlns="http://www.w3.org/2000/svg" xmlns:xlink="http://www.w3.org/1999/xlink" xml:space="preserve" xmlns:serif="http://www.serif.com/" style="fill-rule:evenodd;clip-rule:evenodd;stroke-linejoin:round;stroke-miterlimit:2;">
    <g id="looking-glass" serif:id="looking glass" transform="matrix(0.87544,-1.61081,1.61081,0.87544,-1.63454,57.9864)">
        <path d="M14,17.938C10.056,17.446 6.999,14.077 6.999,10C6.999,5.585 10.584,2 14.999,2C19.415,2 22.999,5.585 22.999,10C22.999,14.077 19.944,17.445 16,17.938L16,20.268C16.598,20.614 17,21.26 17,22L17,30C17,31.104 16.104,32 15,32C13.896,32 13,31.104 13,30L13,22C13,21.26 13.402,20.614 14,20.268L14,17.938ZM15,4C18.311,4 21,6.689 21,10C21,13.312 18.311,16 15,16C11.689,16 9,13.312 9,10C9,6.689 11.689,4 15,4Z" style="fill-opacity:0.2;"/>
        <g transform="matrix(0.486142,0.87388,-0.87388,0.486142,22.7334,-10.3776)">
            <path d="M10.255,13.173C11.172,12.126 12.518,11.464 14.018,11.464C15.549,11.464 16.92,12.154 17.837,13.239C16.73,12.714 15.402,12.408 13.974,12.408C12.608,12.408 11.333,12.689 10.255,13.173Z" style="fill:url(#_Radial1);"/>
        </g>
    </g>
    <g transform="matrix(1,0,0,1,2.06534,-0.135659)">
        <g transform="matrix(0.833885,0.159793,-0.159793,0.833885,4.62978,-6.3373)">
            <path d="M58.987,7.822L60.178,9.014L60.178,10.286L57.822,10.286L57.822,10.178C57.813,10.178 57.804,10.178 57.795,10.178L57.795,7.822L58.987,7.822ZM57.822,43.822L57.822,43.714L60.178,43.714L60.178,44.986L59.222,46.157C59.222,46.157 58.716,46.178 57.795,46.178L57.795,43.822L57.822,43.822ZM7.178,43.822L7.205,43.822L7.205,46.178L6.013,46.178L6.222,46.157L4.822,44.986L4.822,43.714L7.178,43.714L7.178,43.822ZM4.822,9.014L6.013,7.822L7.205,7.822L7.205,10.178L7.178,10.178L7.178,10.286L4.822,10.286L4.822,9.014ZM57.822,12.857L60.178,12.857L60.178,15.429L57.822,15.429L57.822,12.857ZM57.822,18L60.178,18L60.178,20.571L57.822,20.571L57.822,18ZM57.822,23.143L60.178,23.143L60.178,25.714L57.822,25.714L57.822,23.143ZM57.822,28.286L60.178,28.286L60.178,30.857L57.822,30.857L57.822,28.286ZM57.822,33.429L60.178,33.429L60.178,36L57.822,36L57.822,33.429ZM57.822,38.571L60.178,38.571L60.178,41.143L57.822,41.143L57.822,38.571ZM55.386,43.822L55.386,46.178L52.977,46.178L52.977,43.822L55.386,43.822ZM16.841,43.822L16.841,46.178L14.432,46.178L14.432,43.822L16.841,43.822ZM12.023,43.822L12.023,46.178L9.614,46.178L9.614,43.822L12.023,43.822ZM7.178,41.143L4.822,41.143L4.822,38.571L7.178,38.571L7.178,41.143ZM7.178,36L4.822,36L4.822,33.429L7.178,33.429L7.178,36ZM7.178,30.857L4.822,30.857L4.822,28.286L7.178,28.286L7.178,30.857ZM7.178,25.714L4.822,25.714L4.822,23.143L7.178,23.143L7.178,25.714ZM7.178,20.571L4.822,20.571L4.822,18L7.178,18L7.178,20.571ZM7.178,15.429L4.822,15.429L4.822,12.857L7.178,12.857L7.178,15.429ZM9.614,10.178L9.614,7.822L12.023,7.822L12.023,10.178L9.614,10.178ZM14.432,10.178L14.432,7.822L16.841,7.822L16.841,10.178L14.432,10.178ZM19.25,10.178L19.25,7.822L21.659,7.822L21.659,10.178L19.25,10.178ZM24.068,10.178L24.068,7.822L26.477,7.822L26.477,10.178L24.068,10.178ZM28.886,10.178L28.886,7.822L31.295,7.822L31.295,10.178L28.886,10.178ZM33.705,10.178L33.705,7.822L36.114,7.822L36.114,10.178L33.705,10.178ZM38.523,10.178L38.523,7.822L40.932,7.822L40.932,10.178L38.523,10.178ZM43.341,10.178L43.341,7.822L45.75,7.822L45.75,10.178L43.341,10.178ZM48.159,10.178L48.159,7.822L50.568,7.822L50.568,10.178L48.159,10.178ZM52.977,10.178L52.977,7.822L55.386,7.822L55.386,10.178L52.977,10.178Z" style="fill-opacity:0.1;"/>
        </g>
        <g transform="matrix(0.507591,0.758451,-8.29222,5.54955,426.987,-258.193)">
            <path d="M9.971,48.964L5.963,48.964L5.963,48.763L9.971,48.763L9.971,48.397L12.162,48.397L12.162,48.763L16.17,48.763L16.17,48.964L12.162,48.964L12.162,49.33L9.971,49.33L9.971,48.964Z" style="fill-opacity:0.1;"/>
        </g>
    </g>
    <defs>
        <radialGradient id="_Radial1" cx="0" cy="0" r="1" gradientUnits="userSpaceOnUse" gradientTransform="matrix(-3.6201,1.13507,-0.861911,-3.69846,13.9379,11.9895)"><stop offset="0" style="stop-color:black;stop-opacity:0.2"/><stop offset="1" style="stop-color:black;stop-opacity:0.2"/></radialGradient>
    </defs>
</svg>
