<?xml version="1.0" encoding="UTF-8" standalone="no"?>
<!DOCTYPE svg PUBLIC "-//W3C//DTD SVG 1.1//EN" "http://www.w3.org/Graphics/SVG/1.1/DTD/svg11.dtd">
<svg width="100%" height="100%" viewBox="0 0 32 32" version="1.1" xmlns="http://www.w3.org/2000/svg" xmlns:xlink="http://www.w3.org/1999/xlink" xml:space="preserve" xmlns:serif="http://www.serif.com/" style="fill-rule:evenodd;clip-rule:evenodd;stroke-linejoin:round;stroke-miterlimit:2;">
    <g transform="matrix(0.880189,0,0,0.880189,1.91697,2.14517)">
        <path d="M12.436,0.094C10.657,0.493 8.957,1.188 7.407,2.149L7.632,5.626C6.928,6.194 6.283,6.833 5.708,7.532L2.233,7.273C1.257,8.813 0.546,10.506 0.13,12.282L2.748,14.582C2.651,15.481 2.647,16.389 2.735,17.289L0.094,19.564C0.493,21.343 1.188,23.043 2.149,24.593L5.626,24.368C6.194,25.072 6.833,25.717 7.532,26.292L7.273,29.767C8.813,30.743 10.506,31.454 12.282,31.87L14.582,29.252C15.481,29.349 16.389,29.353 17.289,29.265L19.564,31.906C21.343,31.507 23.043,30.812 24.593,29.851L24.368,26.374C25.072,25.806 25.717,25.167 26.292,24.468L29.767,24.727C30.743,23.187 31.454,21.494 31.87,19.718L29.252,17.418C29.349,16.519 29.353,15.611 29.265,14.711L31.906,12.436C31.507,10.657 30.812,8.957 29.851,7.407L26.374,7.632C25.806,6.928 25.167,6.283 24.468,5.708L24.727,2.233C23.187,1.257 21.494,0.546 19.718,0.13L17.418,2.748C16.519,2.651 15.611,2.647 14.711,2.735L12.436,0.094ZM13.489,9.852C16.881,8.466 20.761,10.096 22.148,13.489C23.534,16.881 21.904,20.761 18.511,22.148C15.119,23.534 11.239,21.904 9.852,18.511C8.466,15.119 10.096,11.239 13.489,9.852Z"/>
    </g>
</svg>
