<?xml version="1.0" encoding="UTF-8" standalone="no"?>
<!DOCTYPE svg PUBLIC "-//W3C//DTD SVG 1.1//EN" "http://www.w3.org/Graphics/SVG/1.1/DTD/svg11.dtd">
<svg width="100%" height="100%" viewBox="0 0 32 32" version="1.1" xmlns="http://www.w3.org/2000/svg" xmlns:xlink="http://www.w3.org/1999/xlink" xml:space="preserve" xmlns:serif="http://www.serif.com/" style="fill-rule:evenodd;clip-rule:evenodd;stroke-linejoin:round;stroke-miterlimit:2;">
    <g transform="matrix(1.35579,0,0,1.35579,-5.69402,-5.8648)">
        <path d="M9.049,24.965C7.175,24.898 5.675,23.357 5.675,21.467C5.675,20.861 5.829,20.29 6.101,19.793L6.089,19.772L12.936,8.185L12.983,8.186C13.588,7.139 14.72,6.434 16.015,6.434C17.344,6.434 18.501,7.176 19.094,8.269L19.113,8.269L25.868,19.699L25.852,19.725C26.154,20.243 26.327,20.844 26.327,21.486C26.327,23.417 24.759,24.986 22.827,24.986C22.805,24.986 22.782,24.985 22.76,24.985L22.751,25L9.068,25L9.049,24.965ZM14.526,16.76C14.526,17.167 14.856,17.498 15.263,17.498L16.739,17.498C17.146,17.498 17.476,17.167 17.476,16.76L17.476,10.859C17.476,10.452 17.146,10.122 16.739,10.122L15.263,10.122C14.856,10.122 14.526,10.452 14.526,10.859L14.526,16.76ZM16.001,23.398C17.222,23.398 18.214,22.407 18.214,21.185C18.214,19.964 17.222,18.973 16.001,18.973C14.78,18.973 13.788,19.964 13.788,21.185C13.788,22.407 14.78,23.398 16.001,23.398Z" style="fill:rgb(255,154,0);"/>
    </g>
</svg>
